<svg xmlns="http://www.w3.org/2000/svg" width="530" height="530" viewBox="0 0 529.9 529.9"><path d="M21.4 444.5c14.3 14.3 31.5 21.4 51.7 21.4h365.5c20.2 0 37.4-7.1 51.7-21.4 14.3-14.3 21.4-31.5 21.4-51.7H0C0 413 7.1 430.3 21.4 444.5z"/><path d="M137 356.3h201c17.5 0 32.5-6.3 45.1-18.8 12.6-12.6 18.8-27.6 18.8-45.1v-9.1h18.3c30.3 0 56.1-10.7 77.5-32.1 21.4-21.4 32.1-47.3 32.1-77.5 0-30.3-10.7-56.1-32.1-77.5 -21.4-21.4-47.3-32.1-77.5-32.1H91.4c-4.9 0-9.2 1.8-12.8 5.4 -3.6 3.6-5.4 7.9-5.4 12.9v210.1c0 17.5 6.3 32.5 18.8 45.1C104.5 350 119.5 356.3 137 356.3zM402 118.8h18.3c15.2 0 28.2 5.3 38.8 16 10.7 10.7 16 23.6 16 38.8 0 15.2-5.3 28.2-16 38.8 -10.7 10.7-23.6 16-38.8 16h-18.3V118.8z"/></svg>